<svg xmlns="http://www.w3.org/2000/svg" xmlns:xlink="http://www.w3.org/1999/xlink" viewBox="0 0 4000 4000"><defs><style>.cls-1{stroke-miterlimit:10;fill:url(#linear-gradient);stroke:url(#linear-gradient-2);}.cls-2{fill:#fff;}.cls-3{fill:url(#linear-gradient-3);}.cls-4{fill:url(#linear-gradient-4);}.cls-5{fill:url(#linear-gradient-5);}.cls-6{fill:url(#linear-gradient-6);}.cls-7{fill:url(#linear-gradient-7);}.cls-8{fill:url(#linear-gradient-8);}</style><linearGradient id="linear-gradient" x1="-0.5" y1="1999.5" x2="3999.5" y2="1999.5" gradientUnits="userSpaceOnUse"><stop offset="0" stop-color="#29abe2"/><stop offset="1" stop-color="#296fe2"/></linearGradient><linearGradient id="linear-gradient-2" x1="-1" x2="4000" xlink:href="#linear-gradient"/><linearGradient id="linear-gradient-3" x1="1853.13" y1="2441.2" x2="2148.67" y2="2441.2" gradientUnits="userSpaceOnUse"><stop offset="0" stop-color="#2975e2"/><stop offset="1" stop-color="#296fe2"/></linearGradient><linearGradient id="linear-gradient-4" x1="1852.12" y1="2441.24" x2="2149.64" y2="2441.24" xlink:href="#linear-gradient-3"/><linearGradient id="linear-gradient-5" x1="1999.76" y1="2682.45" x2="2569.23" y2="2682.45" gradientUnits="userSpaceOnUse"><stop offset="0" stop-color="#296fe2"/><stop offset="1" stop-color="#29abe2"/></linearGradient><linearGradient id="linear-gradient-6" x1="1431.08" y1="2682.76" x2="2000.54" y2="2682.76" xlink:href="#linear-gradient"/><linearGradient id="linear-gradient-7" x1="2199.5" y1="1977.16" x2="2568.98" y2="1977.16" xlink:href="#linear-gradient-5"/><linearGradient id="linear-gradient-8" x1="1431.42" y1="1977.22" x2="1800.91" y2="1977.22" xlink:href="#linear-gradient-5"/></defs><title>the-cat</title><g id="Layer_1" data-name="Layer 1"><rect class="cls-1" x="-0.5" y="-0.5" width="4000" height="4000"/></g><g id="Layer_2" data-name="Layer 2"><circle class="cls-2" cx="2000" cy="2235.54" r="1098.12"/><path class="cls-2" d="M3074.62,2235.54A1078.93,1078.93,0,0,1,3022,2568.83c-33.5,103.15-83,200.72-146.05,289.58a1079.62,1079.62,0,0,1-221.69,230c-86,65.81-182.36,119.24-283.41,156.19A1075.09,1075.09,0,0,1,1170.4,2918.82c-67.83-81.91-125.07-177.13-165.17-275.59-42-103.07-68.24-212.83-76.64-323.11-8.71-114.28.13-228.66,27.22-339.63a1068.3,1068.3,0,0,1,124.68-301.42,1079.69,1079.69,0,0,1,477.21-423.34A1066.23,1066.23,0,0,1,1874.52,1168c113.32-12.88,228.68-8.42,339.81,14.23a1077.6,1077.6,0,0,1,748.57,575.53c49,98.16,82.43,204.61,99.42,313.62,8.35,53.52,12.23,109.22,12.3,164.15.05,30.24,47.05,30.29,47,0-.16-117.09-18.15-234.38-54.34-345.79a1116.88,1116.88,0,0,0-151.62-302,1140.83,1140.83,0,0,0-235.43-243.89,1119.12,1119.12,0,0,0-295.55-162.17c-109.3-40.13-225.1-62.44-341.41-67A1122.76,1122.76,0,0,0,961,1812.64c-44,107.25-70.34,221.26-79.32,336.79a1127.93,1127.93,0,0,0,28.44,352.21A1120.61,1120.61,0,0,0,1255.07,3074c84.09,74.57,179.11,136.84,281.57,183.12a1125.8,1125.8,0,0,0,688.72,77.32A1114,1114,0,0,0,2545.14,3216a1126.14,1126.14,0,0,0,459-480.27c51.1-102.73,86.62-213.09,104-326.52a1158.17,1158.17,0,0,0,13.52-173.67C3121.67,2205.3,3074.67,2205.25,3074.62,2235.54Z"/><polyline class="cls-2" points="3097.44 2313.03 3355 854.09 2490.67 1268.66 1509.49 1252.51 645 838.34 908.35 2340.77"/><path class="cls-2" d="M3120.1,2319.28l25.68-145.48,61.65-349.21,74.3-420.86L3346,1040c10.42-59,21.5-118,31.26-177.08.14-.85.3-1.7.45-2.55,3.66-20.73-15.33-35.74-34.52-26.54l-85.71,41.11L3051.5,973.69,2801,1093.85l-215.6,103.41-71.4,34.25c-11.08,5.31-23,10-33.63,16.13-.48.28-1,.49-1.53.73l11.86-3.21-97.24-1.6-234.94-3.86-283-4.66-244.77-4-80.84-1.33c-12.63-.21-26.15-1.84-38.75-.64a15.14,15.14,0,0,1-1.65,0l11.86,3.21-85.73-41.07-206-98.68L979.08,972.42,763.44,869.11c-35-16.77-69.8-34.09-105.05-50.33l-1.53-.74c-19.28-9.23-38.14,5.88-34.52,26.54l26.2,149.49,62.92,359,76.11,434.22,65.78,375.24,21.55,123c3.43,19.56,5.81,39.69,10.35,59,.19.81.29,1.66.44,2.48,2.19,12.51,17.5,19.55,28.9,16.42,13.21-3.63,18.62-16.37,16.42-28.91L904.81,2185l-62.92-359-76.12-434.22L700,1016.6l-21.55-123c-3.41-19.46-5.4-39.91-10.35-59-.21-.8-.3-1.66-.44-2.48l-34.52,26.54,183.05,87.7,367.5,176.06L1468,1258.6c13.52,6.47,29.08,16.77,44.32,17.46,26,1.16,52.09.85,78.07,1.28l358.39,5.9,392.64,6.47,121.21,2c15.54.26,29.54,2.11,43.87-4.64,74.71-35.19,148.94-71.44,223.4-107.15l372.9-178.86,251.44-120.6,12.64-6.07-34.52-26.53-25.68,145.47L3245,1342.53l-74.3,420.86-64.22,363.76c-10.41,59-21.46,117.95-31.26,177.08-.14.85-.3,1.7-.45,2.55-2.2,12.49,3.37,25.32,16.41,28.91,11.35,3.12,26.69-3.85,28.91-16.41Z"/><polygon class="cls-3" points="2005.35 2540.9 1853.13 2341.5 2148.67 2341.5 2005.35 2540.9"/><path class="cls-4" d="M2034.71,2523.74l-51.38-67.31-82-107.35-18.88-24.74-29.36,51.16h295.54l-29.36-51.16-48.44,67.4-77.19,107.39L1976,2523.74c-4.86,6.77-5.55,18.48-3.43,26.2,2.18,7.88,8.27,16.43,15.63,20.32,7.89,4.17,17.45,6.26,26.2,3.42s14.89-8.07,20.32-15.62l48.44-67.4,77.19-107.39,17.69-24.61c6.91-9.61,5.7-24.58,0-34.32a34.27,34.27,0,0,0-29.36-16.84H1853.13a34.26,34.26,0,0,0-29.36,16.84c-5.56,9.51-7.12,25,0,34.32l51.38,67.31,82,107.35,18.88,24.74c5.61,7.35,11,13.07,20.32,15.62,8.14,2.25,19,1.23,26.2-3.42s13.65-11.65,15.63-20.32C2040,2541.66,2040.12,2530.83,2034.71,2523.74Z"/><path class="cls-5" d="M2534.73,2540.33a298.29,298.29,0,0,1-2.46,37.54l1.21-9a287.14,287.14,0,0,1-19.75,72.79l3.43-8.12a288.51,288.51,0,0,1-37.22,63.61l5.32-6.88a290.76,290.76,0,0,1-50.86,50.86l6.88-5.31a288.93,288.93,0,0,1-63.62,37.21l8.12-3.42a287.48,287.48,0,0,1-72.78,19.75l9-1.22a292.16,292.16,0,0,1-75.09,0l9,1.22a287.55,287.55,0,0,1-72.79-19.75l8.12,3.42a289.09,289.09,0,0,1-63.61-37.21l6.88,5.31a290.76,290.76,0,0,1-50.86-50.86l5.31,6.88a288.86,288.86,0,0,1-37.21-63.61l3.42,8.12a287.53,287.53,0,0,1-19.74-72.79l1.21,9a298.29,298.29,0,0,1-2.46-37.54c0-17.79-15.61-34.83-34-34s-34,14.94-34,34c.16,64.5,19.83,129.52,57.41,182.15A326.14,326.14,0,0,0,2177.53,2840c61.26,22.49,130.82,24.36,193.51,6.62,60.63-17.16,116.84-53,157-101.67a336.61,336.61,0,0,0,52.05-87.13c12.39-30.09,19.12-62,21.73-94.42.62-7.69.91-15.39.93-23.1,0-17.79-15.67-34.82-34-34s-34,14.94-34,34Z"/><path class="cls-6" d="M1966,2540.64a298.31,298.31,0,0,1-2.45,37.55l1.21-9a287.07,287.07,0,0,1-19.75,72.78l3.43-8.12a289,289,0,0,1-37.22,63.62l5.32-6.88a290.76,290.76,0,0,1-50.86,50.86l6.88-5.32a289.2,289.2,0,0,1-63.62,37.22l8.12-3.43a287.07,287.07,0,0,1-72.78,19.75l9-1.21a292.16,292.16,0,0,1-75.09,0l9,1.21a287.14,287.14,0,0,1-72.79-19.75l8.12,3.43a288.9,288.9,0,0,1-63.61-37.22l6.88,5.32a290.76,290.76,0,0,1-50.86-50.86l5.31,6.88a288.93,288.93,0,0,1-37.21-63.62l3.42,8.12a287.48,287.48,0,0,1-19.75-72.78l1.22,9a298.32,298.32,0,0,1-2.46-37.55c0-17.78-15.61-34.82-34-34s-34,14.94-34,34c.16,64.5,19.82,129.52,57.4,182.15a326.15,326.15,0,0,0,153.87,117.55c61.25,22.5,130.82,24.37,193.51,6.62,60.63-17.15,116.84-53,157-101.67a336.39,336.39,0,0,0,52.05-87.12c12.39-30.09,19.12-62,21.73-94.42.62-7.69.91-15.4.92-23.11,0-17.78-15.66-34.82-34-34s-34,14.94-34,34Z"/><path class="cls-7" d="M2234,2069.27a197.2,197.2,0,0,1,1.68-25l-1.21,9a188,188,0,0,1,12.79-46.72l-3.42,8.12a188.66,188.66,0,0,1,23.91-40.86l-5.32,6.88a190.13,190.13,0,0,1,33.27-33.27l-6.88,5.32a189.18,189.18,0,0,1,40.87-23.92l-8.13,3.43a188,188,0,0,1,46.72-12.79l-9,1.21a191.08,191.08,0,0,1,50,0l-9-1.21a188,188,0,0,1,46.72,12.79l-8.12-3.43a189.11,189.11,0,0,1,40.86,23.92l-6.88-5.32a189.79,189.79,0,0,1,33.27,33.27l-5.32-6.88a189.11,189.11,0,0,1,23.92,40.86l-3.43-8.12a188,188,0,0,1,12.79,46.72l-1.21-9a197.2,197.2,0,0,1,1.68,25c.07,17.78,15.59,34.82,34,34s34.07-14.94,34-34c-.16-43.93-13.39-88.66-39.11-124.48-26.94-37.53-63-65.28-106.43-81.25C2374,1833,2274.29,1859.86,2218,1928c-33,40-51.83,89.09-52,141.24-.07,17.79,15.69,34.82,34,34,18.48-.83,33.93-14.94,34-34Z"/><path class="cls-8" d="M1465.92,2069.33a197.08,197.08,0,0,1,1.69-25l-1.22,9a188,188,0,0,1,12.8-46.71l-3.43,8.12a189,189,0,0,1,23.91-40.87l-5.32,6.88a190.76,190.76,0,0,1,33.27-33.26l-6.88,5.31a189.38,189.38,0,0,1,40.87-23.91l-8.12,3.43a188,188,0,0,1,46.71-12.8l-9,1.22a191.16,191.16,0,0,1,50,0l-9-1.22a188,188,0,0,1,46.71,12.8l-8.12-3.43a189.38,189.38,0,0,1,40.87,23.91l-6.88-5.31a190.76,190.76,0,0,1,33.27,33.26l-5.32-6.88a189.38,189.38,0,0,1,23.91,40.87l-3.43-8.12a188,188,0,0,1,12.8,46.71l-1.22-9a197.08,197.08,0,0,1,1.69,25c.06,17.78,15.59,34.82,34,34s34.07-14.94,34-34c-.17-43.93-13.4-88.66-39.11-124.49-26.94-37.52-63-65.27-106.44-81.24-82.94-30.55-182.65-3.68-238.91,64.49-33,40-51.83,89.08-52,141.24-.06,17.78,15.69,34.82,34,34,18.48-.83,33.93-14.94,34-34Z"/></g></svg>